<?xml version="1.0" encoding="utf-8"?>
<!-- Generator: Adobe Illustrator 27.0.1, SVG Export Plug-In . SVG Version: 6.00 Build 0)  -->
<svg version="1.1" id="Layer_1" xmlns="http://www.w3.org/2000/svg" xmlns:xlink="http://www.w3.org/1999/xlink" x="0px" y="0px"
	 viewBox="0 0 306.1 250" style="enable-background:new 0 0 306.1 250;" xml:space="preserve">
<style type="text/css">
	.st0{fill:#955699;}
	.st1{opacity:0.7;fill:#FFFFFF;enable-background:new    ;}
	.st2{fill:#955699;stroke:#231F20;stroke-width:5;stroke-miterlimit:10;}
	.st3{opacity:0.7;fill:#FFFFFF;stroke:#231F20;stroke-width:5;stroke-miterlimit:10;enable-background:new    ;}
	.st4{fill:#231F20;}
	.st5{fill:none;stroke:#231F20;stroke-width:8;stroke-miterlimit:10;}
</style>
<polyline class="st0" points="254,174.9 153.1,245.2 153.4,245.2 52.4,174.9 "/>
<polyline class="st1" points="253.9,174.9 152.9,245.2 153.2,245.2 52.2,174.9 "/>
<path class="st2" d="M212.8,2.5H93.3C43.2,2,2.1,42.2,1.6,92.4s39.7,91.2,89.9,91.8c0.6,0,1.3,0,1.9,0h119.5
	c50.2-0.5,90.4-41.6,89.9-91.8C302.1,42.9,262.2,3,212.8,2.5z"/>
<path class="st3" d="M207.3,14.9H98.8c-45.5,0-82.5,35.1-82.5,78.4s36.9,78.4,82.5,78.4h108.5c45.5,0,82.5-35.1,82.5-78.4
	S252.8,14.9,207.3,14.9z"/>
<path class="st4" d="M128.6,79c-0.7-2.6-1.7-5.2-2.9-7.6c-1.2-2.3-2.9-4.3-4.8-6c-2-1.7-4.4-3.1-6.9-4c-3-1-6.1-1.5-9.2-1.4
	c-4.6-0.1-9.1,0.9-13.2,3.1c-3.6,2-6.7,4.8-9,8.2c-2.4,3.6-4.1,7.5-5.2,11.7c-2.2,8.8-2.2,18,0,26.8c1,4.2,2.8,8.1,5.2,11.7
	c2.3,3.4,5.4,6.2,9,8.2c4.1,2.1,8.6,3.2,13.2,3.1c3.4,0.1,6.8-0.6,9.9-1.9c2.8-1.3,5.3-3.1,7.4-5.3c2.1-2.3,3.7-5.1,4.8-8
	c1.2-3.1,2-6.4,2.3-9.8h16.3c-0.3,5.4-1.5,10.7-3.7,15.7c-2,4.6-4.9,8.8-8.5,12.2c-3.6,3.5-7.9,6.2-12.6,8
	c-5.1,1.9-10.5,2.9-15.9,2.8c-6.6,0.1-13.2-1.2-19.2-3.9c-5.5-2.5-10.4-6.2-14.4-10.8c-4-4.7-7-10.1-9-15.9
	c-4.2-12.5-4.2-26.1,0-38.7c2-5.8,5-11.2,9-15.9c4-4.6,8.9-8.2,14.4-10.8c6-2.7,12.6-4.1,19.2-4c5.1,0,10.2,0.7,15.1,2.2
	c4.5,1.4,8.8,3.5,12.5,6.4c3.6,2.8,6.6,6.3,8.8,10.2c2.3,4.3,3.7,8.9,4.2,13.8L128.6,79L128.6,79z"/>
<path class="st4" d="M201.3,46.4c6.6-0.1,13.2,1.3,19.2,4c5.5,2.6,10.4,6.2,14.4,10.8c4,4.7,7,10.1,9,15.9c4.2,12.5,4.2,26.1,0,38.7
	c-2,5.8-5,11.2-9,15.9c-4,4.6-8.9,8.3-14.4,10.8c-12.3,5.3-26.1,5.3-38.4,0c-5.5-2.5-10.4-6.2-14.4-10.8c-4-4.7-7-10.1-9-15.9
	c-4.2-12.5-4.2-26.1,0-38.7c2-5.8,5-11.2,9-15.9c4-4.6,8.9-8.3,14.4-10.8C188.2,47.7,194.7,46.3,201.3,46.4z M201.3,60.1
	c-4.6-0.1-9.1,0.9-13.2,3.1c-3.6,2-6.7,4.8-9,8.2c-2.4,3.6-4.1,7.5-5.2,11.7c-2.2,8.8-2.2,18,0,26.8c1,4.2,2.8,8.1,5.1,11.7
	c2.3,3.4,5.4,6.2,9,8.2c8.3,4.1,18,4.1,26.4,0c3.6-2,6.7-4.8,9-8.2c2.4-3.6,4.1-7.5,5.1-11.7c2.2-8.8,2.2-18,0-26.8
	c-1-4.2-2.8-8.1-5.1-11.7c-2.3-3.4-5.4-6.2-9-8.2C210.4,61,205.9,59.9,201.3,60.1z"/>
<polyline class="st5" points="228.7,192.7 153.4,245.2 77.4,192.3 "/>
</svg>
