<?xml version="1.0" encoding="utf-8"?>
<!-- Generator: Adobe Illustrator 27.0.1, SVG Export Plug-In . SVG Version: 6.00 Build 0)  -->
<svg version="1.1" id="Layer_1" xmlns="http://www.w3.org/2000/svg" xmlns:xlink="http://www.w3.org/1999/xlink" x="0px" y="0px"
	 viewBox="0 0 186.6 253.4" style="enable-background:new 0 0 186.6 253.4;" xml:space="preserve">
<style type="text/css">
	.st0{fill:#DC4130;}
	.st1{opacity:0.7;fill:#FFFFFF;enable-background:new    ;}
	.st2{fill:#DC4130;stroke:#231F20;stroke-width:5;stroke-miterlimit:10;}
	.st3{opacity:0.7;fill:#FFFFFF;stroke:#231F20;stroke-width:5;stroke-miterlimit:10;enable-background:new    ;}
	.st4{fill:#231F20;}
	.st5{fill:none;stroke:#231F20;stroke-width:8;stroke-miterlimit:10;}
</style>
<g>
	<polygon class="st0" points="93.3,246.7 11.8,138.1 174.8,138.1 	"/>
	<polygon class="st1" points="93.3,246.7 11.8,138.1 174.8,138.1 	"/>
</g>
<circle class="st2" cx="93.3" cy="93.3" r="90.8"/>
<circle class="st3" cx="93.3" cy="93.3" r="77.9"/>
<path class="st4" d="M119.7,76.8c-0.7-2.7-1.7-5.2-2.9-7.6c-2.5-4.7-6.7-8.3-11.7-10c-3-1-6-1.5-9.2-1.4c-4.6-0.1-9.1,0.9-13.2,3.1
	c-3.6,2-6.7,4.8-9,8.2c-2.4,3.6-4.1,7.5-5.2,11.7c-2.2,8.8-2.2,18,0,26.8c1,4.2,2.8,8.1,5.2,11.7c2.3,3.4,5.4,6.2,9,8.2
	c4.1,2.1,8.6,3.2,13.2,3.1c3.4,0.1,6.8-0.6,9.9-1.9c2.8-1.3,5.3-3.1,7.4-5.4s3.7-5.1,4.8-8c1.2-3.1,2-6.4,2.3-9.8h16.3
	c-0.3,5.4-1.5,10.7-3.7,15.7c-2,4.6-4.9,8.8-8.5,12.2c-3.6,3.5-7.9,6.2-12.6,8c-5.1,1.9-10.5,2.9-15.9,2.8
	c-6.6,0.1-13.2-1.2-19.2-3.9c-5.5-2.5-10.4-6.2-14.4-10.8c-4-4.7-7-10.1-9-15.9c-4.2-12.5-4.2-26.1,0-38.7c2-5.8,5-11.2,9-15.9
	c4-4.6,8.9-8.2,14.4-10.8c6-2.7,12.6-4.1,19.2-4c5.1,0,10.2,0.7,15.1,2.2c4.5,1.4,8.8,3.5,12.5,6.4c3.6,2.8,6.5,6.3,8.7,10.2
	c2.3,4.3,3.7,9,4.1,13.8L119.7,76.8z"/>
<polyline class="st5" points="138.7,186.3 93.3,246.7 48,186.3 "/>
</svg>
