<svg xmlns="http://www.w3.org/2000/svg" viewBox="0 0 186.63 253.35"><defs><style>.cls-1{fill:#dc4130;}.cls-1,.cls-2,.cls-4{stroke:#231f20;stroke-miterlimit:10;}.cls-1,.cls-2{stroke-width:5px;}.cls-2{fill:#fff;}.cls-3{fill:#231f20;}.cls-4{fill:none;stroke-width:8px;}</style></defs><g id="Layer_2" data-name="Layer 2"><g id="Layer_1-2" data-name="Layer 1"><circle class="cls-1" cx="93.32" cy="93.32" r="90.82"/><circle class="cls-2" cx="93.32" cy="93.32" r="77.87"/><path class="cls-3" d="M119.67,76.77a34.25,34.25,0,0,0-2.94-7.63,20.92,20.92,0,0,0-11.71-10,27.17,27.17,0,0,0-9.16-1.41,26.81,26.81,0,0,0-13.18,3.08,25.89,25.89,0,0,0-9,8.23,37.14,37.14,0,0,0-5.15,11.7,54.44,54.44,0,0,0,0,26.76,37.14,37.14,0,0,0,5.15,11.7,25.79,25.79,0,0,0,9,8.23,26.8,26.8,0,0,0,13.18,3.07,23.86,23.86,0,0,0,9.9-1.93,22.21,22.21,0,0,0,7.36-5.36,25.13,25.13,0,0,0,4.81-8,38.32,38.32,0,0,0,2.28-9.77h16.31a45.19,45.19,0,0,1-3.67,15.65,38.34,38.34,0,0,1-8.5,12.24,37.45,37.45,0,0,1-12.57,8,43.68,43.68,0,0,1-15.92,2.81,45.08,45.08,0,0,1-19.2-3.95,42.28,42.28,0,0,1-14.38-10.77,48.24,48.24,0,0,1-9-15.91,61.07,61.07,0,0,1,0-38.66,48.29,48.29,0,0,1,9-15.92A43.12,43.12,0,0,1,76.66,48.14a44.5,44.5,0,0,1,19.2-4A50.56,50.56,0,0,1,111,46.34a39,39,0,0,1,12.51,6.42A33.41,33.41,0,0,1,132.24,63a35.51,35.51,0,0,1,4.15,13.78Z"/><polyline class="cls-4" points="138.66 186.28 93.32 246.69 47.98 186.28"/></g></g></svg>