<svg xmlns="http://www.w3.org/2000/svg" viewBox="0 0 306.1 250.04"><defs><style>.cls-1{fill:#955699;}.cls-1,.cls-2,.cls-4{stroke:#231f20;stroke-miterlimit:10;}.cls-1,.cls-2{stroke-width:5px;}.cls-2{fill:#fff;}.cls-3{fill:#231f20;}.cls-4{fill:none;stroke-width:8px;}</style></defs><g id="Layer_2" data-name="Layer 2"><g id="Layer_1-2" data-name="Layer 1"><path class="cls-1" d="M212.79,2.5H93.32a90.82,90.82,0,1,0,0,181.63H212.79a90.82,90.82,0,0,0,0-181.63Z"/><path class="cls-2" d="M207.29,14.87H98.81C53.27,14.87,16.35,50,16.35,93.32s36.92,78.44,82.46,78.44H207.29c45.54,0,82.46-35.12,82.46-78.44S252.83,14.87,207.29,14.87Z"/><path class="cls-3" d="M128.57,79a33.69,33.69,0,0,0-2.94-7.62,21.06,21.06,0,0,0-4.81-6,21.65,21.65,0,0,0-6.89-4,27.53,27.53,0,0,0-9.17-1.4,26.76,26.76,0,0,0-13.17,3.07,25.9,25.9,0,0,0-9,8.23,37.07,37.07,0,0,0-5.15,11.71,54.08,54.08,0,0,0,0,26.75,37.07,37.07,0,0,0,5.15,11.71,25.77,25.77,0,0,0,9,8.22,26.77,26.77,0,0,0,13.17,3.08,23.79,23.79,0,0,0,9.9-1.94,22.09,22.09,0,0,0,7.36-5.35,25.29,25.29,0,0,0,4.81-8,38.22,38.22,0,0,0,2.28-9.77h16.32a45.42,45.42,0,0,1-3.68,15.65,38.63,38.63,0,0,1-8.49,12.25,37.53,37.53,0,0,1-12.58,8,43.39,43.39,0,0,1-15.92,2.81,45,45,0,0,1-19.19-3.94,42.09,42.09,0,0,1-14.38-10.77,47.94,47.94,0,0,1-9-15.92,60.88,60.88,0,0,1,0-38.66,48,48,0,0,1,9-15.92A42.76,42.76,0,0,1,85.57,50.42a44.32,44.32,0,0,1,19.19-4,50.67,50.67,0,0,1,15.12,2.21A39.2,39.2,0,0,1,132.39,55a33.41,33.41,0,0,1,8.76,10.23A35.74,35.74,0,0,1,145.3,79Z"/><path class="cls-3" d="M201.34,46.4a44.36,44.36,0,0,1,19.2,4,43,43,0,0,1,14.38,10.83,48.39,48.39,0,0,1,9,15.92,61.07,61.07,0,0,1,0,38.66,48.29,48.29,0,0,1-9,15.92,42.28,42.28,0,0,1-14.38,10.77,48.73,48.73,0,0,1-38.39,0,42.09,42.09,0,0,1-14.38-10.77,47.94,47.94,0,0,1-9-15.92,60.88,60.88,0,0,1,0-38.66,48,48,0,0,1,9-15.92,42.76,42.76,0,0,1,14.38-10.83A44.32,44.32,0,0,1,201.34,46.4Zm0,13.65a26.76,26.76,0,0,0-13.17,3.07,25.81,25.81,0,0,0-9,8.23A37.07,37.07,0,0,0,174,83.06a54.08,54.08,0,0,0,0,26.75,37.07,37.07,0,0,0,5.15,11.71,25.69,25.69,0,0,0,9,8.22,29.72,29.72,0,0,0,26.35,0,25.86,25.86,0,0,0,9-8.22,37.3,37.3,0,0,0,5.15-11.71,54.4,54.4,0,0,0,0-26.75,37.3,37.3,0,0,0-5.15-11.71,26,26,0,0,0-9-8.23A26.78,26.78,0,0,0,201.34,60.05Z"/><polyline class="cls-4" points="228.74 192.72 153.35 245.17 77.36 192.31"/></g></g></svg>