<svg xmlns="http://www.w3.org/2000/svg" viewBox="0 0 186.63 251.2"><defs><style>.cls-1{fill:#3f90b8;}.cls-1,.cls-2,.cls-4{stroke:#231f20;stroke-miterlimit:10;}.cls-1,.cls-2{stroke-width:5px;}.cls-2{fill:#fff;}.cls-3{fill:#231f20;}.cls-4{fill:none;stroke-width:8px;}</style></defs><g id="Layer_2" data-name="Layer 2"><g id="Layer_1-2" data-name="Layer 1"><circle class="cls-1" cx="93.32" cy="93.32" r="90.82"/><circle class="cls-2" cx="93.32" cy="93.32" r="77.87"/><path class="cls-3" d="M93.32,44.13a44.46,44.46,0,0,1,19.19,4A43,43,0,0,1,126.89,59a47.94,47.94,0,0,1,9,15.92,60.88,60.88,0,0,1,0,38.66,47.89,47.89,0,0,1-9,15.91,42.18,42.18,0,0,1-14.38,10.77,45,45,0,0,1-19.19,3.95,45,45,0,0,1-19.2-3.95,42.18,42.18,0,0,1-14.38-10.77,48.24,48.24,0,0,1-9-15.91,61.07,61.07,0,0,1,0-38.66,48.29,48.29,0,0,1,9-15.92A43,43,0,0,1,74.12,48.14,44.47,44.47,0,0,1,93.32,44.13Zm0,13.64a26.78,26.78,0,0,0-13.18,3.08,25.89,25.89,0,0,0-9,8.23A37.14,37.14,0,0,0,66,80.78a54.44,54.44,0,0,0,0,26.76,37.14,37.14,0,0,0,5.15,11.7,25.79,25.79,0,0,0,9,8.23,26.78,26.78,0,0,0,13.18,3.07,26.76,26.76,0,0,0,13.17-3.07,25.79,25.79,0,0,0,9-8.23,36.91,36.91,0,0,0,5.15-11.7,54.44,54.44,0,0,0,0-26.76,36.91,36.91,0,0,0-5.15-11.7,25.89,25.89,0,0,0-9-8.23A26.77,26.77,0,0,0,93.32,57.77Z"/><polyline class="cls-4" points="138.66 184.13 93.32 244.54 47.98 184.13"/></g></g></svg>