<?xml version="1.0" encoding="utf-8"?>
<!-- Generator: Adobe Illustrator 27.0.1, SVG Export Plug-In . SVG Version: 6.00 Build 0)  -->
<svg version="1.1" id="Layer_1" xmlns="http://www.w3.org/2000/svg" xmlns:xlink="http://www.w3.org/1999/xlink" x="0px" y="0px"
	 viewBox="0 0 186.6 251.2" style="enable-background:new 0 0 186.6 251.2;" xml:space="preserve">
<style type="text/css">
	.st0{fill:#3F90B8;}
	.st1{opacity:0.7;fill:#FFFFFF;enable-background:new    ;}
	.st2{fill:#3F90B8;stroke:#231F20;stroke-width:5;stroke-miterlimit:10;}
	.st3{opacity:0.7;fill:#FFFFFF;stroke:#231F20;stroke-width:5;stroke-miterlimit:10;enable-background:new    ;}
	.st4{fill:#231F20;}
	.st5{fill:none;stroke:#231F20;stroke-width:8;stroke-miterlimit:10;}
</style>
<polygon class="st0" points="93.4,244.7 11.9,136.1 174.9,136.1 "/>
<polygon class="st1" points="93.4,244.7 11.9,136.1 174.9,136.1 "/>
<circle class="st2" cx="93.3" cy="93.3" r="90.8"/>
<circle class="st3" cx="93.3" cy="93.3" r="77.9"/>
<path class="st4" d="M93.3,44.1c6.6-0.1,13.2,1.3,19.2,4c5.5,2.6,10.4,6.3,14.4,10.9c4,4.7,7,10.1,9,15.9c4.2,12.5,4.2,26.1,0,38.7
	c-2,5.8-5,11.2-9,15.9c-4,4.6-8.9,8.3-14.4,10.8c-6,2.7-12.6,4.1-19.2,3.9c-6.6,0.1-13.2-1.2-19.2-3.9c-5.5-2.5-10.4-6.2-14.4-10.8
	c-4-4.7-7-10.1-9-15.9c-4.2-12.5-4.2-26.1,0-38.7c2-5.8,5-11.2,9-15.9c4-4.6,8.9-8.3,14.4-10.9C80.1,45.4,86.7,44,93.3,44.1z
	 M93.3,57.8c-4.6-0.1-9.1,0.9-13.2,3.1c-3.6,2-6.7,4.8-9,8.2c-2.4,3.6-4.1,7.5-5.1,11.7c-2.2,8.8-2.2,18,0,26.8
	c1,4.2,2.8,8.1,5.2,11.7c2.3,3.4,5.4,6.2,9,8.2c4.1,2.1,8.6,3.2,13.2,3.1c4.6,0.1,9.1-0.9,13.2-3.1c3.6-2,6.7-4.8,9-8.2
	c2.4-3.6,4.1-7.5,5.2-11.7c2.2-8.8,2.2-18,0-26.8c-1-4.2-2.8-8.1-5.2-11.7c-2.3-3.4-5.4-6.2-9-8.2C102.4,58.7,97.9,57.7,93.3,57.8z"
	/>
<polyline class="st5" points="138.7,184.1 93.3,244.5 48,184.1 "/>
</svg>
