<svg id="Layer_1" data-name="Layer 1" xmlns="http://www.w3.org/2000/svg" viewBox="0 0 116 106.33"><defs><style>.cls-1{fill:#253742;}</style></defs><g id="NewGroupe7"><g id="NewGroup4-7"><path class="cls-1" d="M923.75,861.79a2.42,2.42,0,1,0,2.42,2.42,2.42,2.42,0,0,0-2.42-2.42Zm0,9.67a7.25,7.25,0,1,1,7.25-7.25,7.26,7.26,0,0,1-7.25,7.25Z" transform="translate(-902 -811.04)"/><path class="cls-1" d="M947.92,861.79a2.42,2.42,0,1,0,2.41,2.42,2.42,2.42,0,0,0-2.41-2.42Zm0,9.67a7.25,7.25,0,1,1,7.25-7.25,7.26,7.26,0,0,1-7.25,7.25Z" transform="translate(-902 -811.04)"/><path class="cls-1" d="M923.75,828a2.42,2.42,0,1,0,2.42,2.41,2.42,2.42,0,0,0-2.42-2.41Zm0,9.66a7.25,7.25,0,1,1,7.25-7.25,7.26,7.26,0,0,1-7.25,7.25Z" transform="translate(-902 -811.04)"/><path class="cls-1" d="M947.92,828a2.42,2.42,0,1,0,2.41,2.41,2.41,2.41,0,0,0-2.41-2.41Zm0,9.66a7.25,7.25,0,1,1,7.25-7.25,7.26,7.26,0,0,1-7.25,7.25Z" transform="translate(-902 -811.04)"/><path class="cls-1" d="M947.92,895.62a2.42,2.42,0,1,0,2.41,2.42,2.42,2.42,0,0,0-2.41-2.42Zm0,9.67a7.25,7.25,0,1,1,7.25-7.25,7.26,7.26,0,0,1-7.25,7.25Z" transform="translate(-902 -811.04)"/><path class="cls-1" d="M923.75,895.62a2.42,2.42,0,1,0,2.42,2.42,2.42,2.42,0,0,0-2.42-2.42Zm0,9.67A7.25,7.25,0,1,1,931,898a7.26,7.26,0,0,1-7.25,7.25Z" transform="translate(-902 -811.04)"/><path class="cls-1" d="M998.67,811H921.33A19.33,19.33,0,0,0,912,847.29a19.15,19.15,0,0,1,9.34-2.42,14.5,14.5,0,0,1,0-29h77.34a14.5,14.5,0,0,1,0,29,19.15,19.15,0,0,1,9.34,2.42A19.33,19.33,0,0,0,998.67,811Z" transform="translate(-902 -811.04)"/><path class="cls-1" d="M1008,847.29a19.15,19.15,0,0,0-9.34-2.42H921.33A19.33,19.33,0,0,0,912,881.12a19.15,19.15,0,0,1,9.34-2.41,14.5,14.5,0,1,1,0-29h77.34a14.5,14.5,0,1,1,0,29,19.15,19.15,0,0,1,9.34,2.41,19.32,19.32,0,0,0,0-33.83Z" transform="translate(-902 -811.04)"/><path class="cls-1" d="M998.67,912.54H921.33a14.5,14.5,0,1,1,0-29h77.34a14.5,14.5,0,1,1,0,29Zm9.34-31.42a19.15,19.15,0,0,0-9.34-2.41H921.33a19.15,19.15,0,0,0-9.34,2.41,19.33,19.33,0,0,0,9.34,36.25h77.34a19.33,19.33,0,0,0,9.34-36.25Z" transform="translate(-902 -811.04)"/></g></g></svg>